<?xml version="1.0" encoding="UTF-8"?>
<!DOCTYPE svg PUBLIC "-//W3C//DTD SVG 1.1//EN" "http://www.w3.org/Graphics/SVG/1.1/DTD/svg11.dtd">
<!-- Creator: CorelDRAW X7 -->
<svg xmlns="http://www.w3.org/2000/svg" xml:space="preserve" width="760px" height="163px" version="1.1" style="shape-rendering:geometricPrecision; text-rendering:geometricPrecision; image-rendering:optimizeQuality; fill-rule:evenodd; clip-rule:evenodd"
viewBox="0 0 34145 7325"
 xmlns:xlink="http://www.w3.org/1999/xlink">
 <defs>
  <style type="text/css">
   <![CDATA[
    .fil0 {fill:#74B9FF;fill-rule:nonzero}
    .fil1 {fill:white;fill-rule:nonzero}
   ]]>
  </style>
 </defs>
 <g id="Vrstva_x0020_1">
  <metadata id="CorelCorpID_0Corel-Layer"/>
  <g id="_1934978200400">
   <path class="fil0" d="M3873 3838l-1438 -3732 -996 0 -1437 3732 900 0 235 -633 1600 0 235 633 901 0zm-1354 -1332l-1163 0 581 -1605 582 1605zm2394 1332l0 -1785c118,-173 431,-308 666,-308 84,0 146,6 196,17l0 -693c-336,0 -666,195 -862,430l0 -363 -710 0 0 2702 710 0zm14853 67c1125,0 1947,-806 1947,-1930 0,-1125 -822,-1930 -1947,-1930 -1130,0 -1952,805 -1952,1930 0,1124 822,1930 1952,1930zm0 -705c-694,0 -1136,-532 -1136,-1225 0,-700 442,-1225 1136,-1225 688,0 1130,525 1130,1225 0,693 -442,1225 -1130,1225zm5029 638l0 -1908c0,-526 -285,-861 -884,-861 -436,0 -772,212 -945,413l0 -346 -711 0 0 2702 711 0 0 -1824c123,-157 336,-313 615,-313 302,0 498,128 498,503l0 1634 716 0z"/>
   <path class="fil1" d="M7476 3905c553,0 889,-246 1068,-493l-464 -436c-129,185 -325,297 -571,297 -431,0 -733,-319 -733,-789 0,-470 302,-783 733,-783 246,0 442,100 571,291l464 -437c-179,-246 -515,-486 -1068,-486 -828,0 -1432,587 -1432,1415 0,833 604,1421 1432,1421zm4072 -67l0 -1919c0,-526 -285,-850 -878,-850 -442,0 -772,212 -945,413l0 -1376 -717 0 0 3732 717 0 0 -1824c117,-157 335,-313 615,-313 302,0 498,117 498,492l0 1645 710 0zm1058 -2993c234,0 425,-190 425,-425 0,-235 -191,-420 -425,-420 -230,0 -420,185 -420,420 0,235 190,425 420,425zm358 2993l0 -2702 -711 0 0 2702 711 0zm2170 0l1085 -2702 -760 0 -711 1879 -705 -1879 -761 0 1086 2702 766 0zm11071 0l0 -3732 -710 0 0 3732 710 0zm1057 -2993c235,0 426,-190 426,-425 0,-235 -191,-420 -426,-420 -229,0 -419,185 -419,420 0,235 190,425 419,425zm358 2993l0 -2702 -710 0 0 2702 710 0zm3245 0l0 -1908c0,-526 -285,-861 -884,-861 -436,0 -772,212 -945,413l0 -346 -711 0 0 2702 711 0 0 -1824c123,-157 335,-313 615,-313 302,0 498,128 498,503l0 1634 716 0zm1969 67c420,0 845,-129 1113,-375l-318 -470c-174,168 -487,263 -717,263 -458,0 -727,-274 -777,-604l2008 0 0 -168c0,-878 -542,-1482 -1354,-1482 -816,0 -1398,632 -1398,1415 0,867 621,1421 1443,1421zm627 -1678l-1332 0c28,-269 218,-577 660,-577 470,0 649,319 672,577z"/>
  </g>
  <path class="fil1" d="M637 7325c449,0 613,-249 613,-488 0,-620 -984,-406 -984,-780 0,-157 145,-264 342,-264 181,0 356,60 480,200l125 -152c-140,-147 -337,-234 -588,-234 -329,0 -573,189 -573,463 0,592 984,353 984,782 0,129 -95,288 -391,288 -234,0 -413,-114 -521,-239l-124 160c137,154 351,264 637,264zm1178 0c107,0 174,-33 222,-78l-55 -141c-25,27 -72,52 -127,52 -80,0 -120,-65 -120,-155l0 -747 245 0 0 -164 -245 0 0 -329 -189 0 0 329 -199 0 0 164 199 0 0 787c0,180 90,282 269,282zm1365 -30l0 -827c0,-291 -209,-406 -466,-406 -197,0 -351,65 -481,199l88 130c107,-117 224,-167 368,-167 174,0 304,92 304,252l0 216c-97,-109 -234,-162 -398,-162 -205,0 -419,125 -419,396 0,262 217,399 419,399 161,0 301,-58 398,-167l0 137 187 0zm-516 -105c-177,0 -299,-109 -299,-264 0,-152 122,-261 299,-261 130,0 257,50 329,147l0 229c-72,99 -199,149 -329,149zm453 -1638l-194 0 -368 358 142 0 420 -358zm745 1773c107,0 174,-33 222,-78l-55 -141c-25,27 -72,52 -127,52 -80,0 -120,-65 -120,-155l0 -747 244 0 0 -164 -244 0 0 -329 -189 0 0 329 -199 0 0 164 199 0 0 787c0,180 90,282 269,282zm1424 -30l0 -844c0,-262 -132,-389 -381,-389 -182,0 -346,102 -431,204l0 -174 -186 0 0 1203 186 0 0 -879c73,-97 210,-187 357,-187 161,0 271,65 271,279l0 787 184 0zm869 -1743l-194 0 -369 358 142 0 421 -358zm-306 1743l0 -1203 -187 0 0 1203 187 0zm1544 30c366,0 595,-284 595,-633 0,-348 -229,-630 -595,-630 -366,0 -595,282 -595,630 0,349 229,633 595,633zm0 -167c-257,0 -399,-219 -399,-466 0,-244 142,-463 399,-463 256,0 398,219 398,463 0,247 -142,466 -398,466zm1085 -189l0 -546c65,-104 212,-194 361,-194 242,0 386,199 386,466 0,266 -144,463 -386,463 -149,0 -296,-85 -361,-189zm0 326l0 -179c90,121 237,209 406,209 314,0 536,-239 536,-630 0,-386 -220,-633 -536,-633 -162,0 -309,80 -406,212l0 -640 -186 0 0 1661 186 0zm1432 0l0 -1661 -187 0 0 1661 187 0zm1312 0l0 -827c0,-291 -209,-406 -465,-406 -197,0 -351,65 -481,199l87 130c107,-117 224,-167 369,-167 174,0 303,92 303,252l0 216c-97,-109 -234,-162 -398,-162 -204,0 -418,125 -418,396 0,262 216,399 418,399 162,0 301,-58 398,-167l0 137 187 0zm-515 -105c-177,0 -299,-109 -299,-264 0,-152 122,-261 299,-261 129,0 256,50 328,147l0 229c-72,99 -199,149 -328,149zm1275 135c308,0 470,-162 470,-364 0,-468 -744,-296 -744,-558 0,-107 102,-189 266,-189 157,0 287,65 359,152l87 -129c-95,-98 -239,-175 -446,-175 -286,0 -445,157 -445,346 0,446 744,267 744,558 0,120 -102,207 -286,207 -165,0 -317,-80 -396,-172l-95 134c122,127 286,190 486,190zm1080 0c107,0 175,-33 222,-78l-55 -141c-25,27 -72,52 -127,52 -79,0 -119,-65 -119,-155l0 -747 244 0 0 -164 -244 0 0 -329 -190 0 0 329 -199 0 0 164 199 0 0 787c0,180 90,282 269,282zm1425 -30l0 -844c0,-262 -132,-389 -381,-389 -182,0 -346,102 -431,204l0 -174 -187 0 0 1203 187 0 0 -879c72,-97 209,-187 356,-187 162,0 271,65 271,279l0 787 185 0zm869 -1743l-195 0 -368 358 142 0 421 -358zm-307 1743l0 -1203 -186 0 0 1203 186 0zm1957 0l0 -827c0,-291 -209,-406 -465,-406 -197,0 -351,65 -481,199l87 130c107,-117 224,-167 369,-167 174,0 304,92 304,252l0 216c-97,-109 -234,-162 -399,-162 -204,0 -418,125 -418,396 0,262 217,399 418,399 162,0 302,-58 399,-167l0 137 186 0zm-515 -105c-177,0 -299,-109 -299,-264 0,-152 122,-261 299,-261 130,0 256,50 329,147l0 229c-73,99 -199,149 -329,149zm1078 105l0 -852c55,-97 212,-192 329,-192 27,0 50,3 72,5l0 -191c-164,0 -304,94 -401,219l0 -192 -187 0 0 1203 187 0zm1166 30c219,0 348,-90 440,-209l-124 -115c-80,107 -182,157 -307,157 -253,0 -415,-199 -415,-466 0,-266 162,-463 415,-463 125,0 227,45 307,154l124 -112c-92,-119 -221,-209 -440,-209 -359,0 -601,274 -601,630 0,356 242,633 601,633zm1705 -30l0 -849c0,-262 -132,-384 -383,-384 -182,0 -346,102 -429,204l0 -632 -186 0 0 1661 186 0 0 -879c70,-97 210,-187 354,-187 164,0 271,60 271,274l0 792 187 0zm468 -1375c70,0 125,-54 125,-124 0,-70 -55,-127 -125,-127 -69,0 -127,57 -127,127 0,70 58,124 127,124zm92 1375l0 -1203 -186 0 0 1203 186 0zm899 0l501 -1203 -202 0 -401 986 -398 -986 -204 0 500 1203 204 0zm1865 0l501 -1203 -202 0 -401 986 -398 -986 -204 0 500 1203 204 0zm2490 0l0 -184 -953 0 936 -1305 0 -172 -1200 0 0 184 933 0 -933 1305 0 172 1217 0zm1245 0l0 -827c0,-291 -209,-406 -465,-406 -197,0 -352,65 -481,199l87 130c107,-117 224,-167 369,-167 174,0 303,92 303,252l0 216c-97,-109 -234,-162 -398,-162 -204,0 -418,125 -418,396 0,262 216,399 418,399 162,0 301,-58 398,-167l0 137 187 0zm-515 -105c-177,0 -299,-109 -299,-264 0,-152 122,-261 299,-261 129,0 256,50 328,147l0 229c-72,99 -199,149 -328,149zm453 -1638l-194 0 -369 358 142 0 421 -358zm2077 1743l0 -869c0,-242 -117,-364 -337,-364 -174,0 -336,115 -403,224 -35,-124 -139,-224 -321,-224 -179,0 -339,127 -391,204l0 -174 -187 0 0 1203 187 0 0 -879c65,-97 194,-187 316,-187 159,0 222,97 222,249l0 817 186 0 0 -882c63,-97 195,-184 319,-184 157,0 222,97 222,249l0 817 187 0zm560 0l0 -852c55,-97 211,-192 328,-192 28,0 50,3 73,5l0 -191c-165,0 -304,94 -401,219l0 -192 -187 0 0 1203 187 0zm1018 30c309,0 471,-162 471,-364 0,-468 -745,-296 -745,-558 0,-107 102,-189 267,-189 157,0 286,65 358,152l87 -129c-94,-98 -239,-175 -445,-175 -287,0 -446,157 -446,346 0,446 745,267 745,558 0,120 -103,207 -287,207 -164,0 -316,-80 -396,-172l-94 134c122,127 286,190 485,190zm1833 -30l-536 -658 533 -545 -236 0 -633 640 0 -1098 -186 0 0 1661 186 0 0 -344 202 -197 431 541 239 0zm1220 0l0 -1203 -187 0 0 884c-70,97 -209,182 -353,182 -165,0 -272,-62 -272,-274l0 -792 -187 0 0 849c0,259 132,384 384,384 179,0 336,-95 428,-200l0 170 187 0z"/>
 </g>
</svg>
