<?xml version="1.0" encoding="UTF-8"?>
<!DOCTYPE svg PUBLIC "-//W3C//DTD SVG 1.1//EN" "http://www.w3.org/Graphics/SVG/1.1/DTD/svg11.dtd">
<!-- Creator: CorelDRAW X7 -->
<svg xmlns="http://www.w3.org/2000/svg" xml:space="preserve" width="814px" height="164px" version="1.1" style="shape-rendering:geometricPrecision; text-rendering:geometricPrecision; image-rendering:optimizeQuality; fill-rule:evenodd; clip-rule:evenodd"
viewBox="0 0 39525 7986"
 xmlns:xlink="http://www.w3.org/1999/xlink">
 <defs>
  <style type="text/css">
   <![CDATA[
    .fil0 {fill:#74B9FF;fill-rule:nonzero}
    .fil1 {fill:white;fill-rule:nonzero}
   ]]>
  </style>
 </defs>
 <g id="Vrstva_x0020_1">
  <metadata id="CorelCorpID_0Corel-Layer"/>
  <g id="_2454799630192">
   <path class="fil0" d="M4185 4148l-1554 -4033 -1077 0 -1554 4033 974 0 254 -683 1729 0 254 683 974 0zm-1464 -1439l-1258 0 629 -1735 629 1735zm20355 1512c1216,0 2105,-871 2105,-2086 0,-1216 -889,-2087 -2105,-2087 -1221,0 -2110,871 -2110,2087 0,1215 889,2086 2110,2086zm0 -762c-750,0 -1227,-574 -1227,-1324 0,-756 477,-1325 1227,-1325 744,0 1222,569 1222,1325 0,750 -478,1324 -1222,1324zm6320 689l0 -4033 -859 0 0 2534 -1869 -2534 -883 0 0 4033 859 0 0 -2630 1923 2630 829 0zm-21565 0l-913 -1536c435,-102 889,-489 889,-1197 0,-750 -520,-1300 -1361,-1300l-1886 0 0 4033 858 0 0 -1433 629 0 792 1433 992 0zm-1506 -2189l-907 0 0 -1088 907 0c339,0 599,205 599,538 0,345 -260,550 -599,550z"/>
   <path class="fil1" d="M9791 4221c598,0 961,-266 1155,-532l-502 -472c-139,200 -351,321 -617,321 -466,0 -792,-345 -792,-853 0,-508 326,-847 792,-847 266,0 478,109 617,315l502 -472c-194,-266 -557,-526 -1155,-526 -895,0 -1549,635 -1549,1530 0,901 654,1536 1549,1536zm4402 -73l0 -2074c0,-568 -308,-919 -949,-919 -478,0 -835,230 -1022,448l0 -1488 -775 0 0 4033 775 0 0 -1971c127,-169 362,-339 665,-339 326,0 538,127 538,533l0 1777 768 0zm1143 -3235c254,0 459,-205 459,-459 0,-254 -205,-454 -459,-454 -248,0 -454,200 -454,454 0,254 206,459 454,459zm387 3235l0 -2920 -768 0 0 2920 768 0zm2346 0l1173 -2920 -822 0 -768 2031 -762 -2031 -822 0 1173 2920 828 0zm12875 0l0 -4033 -768 0 0 4033 768 0zm1143 -3235c254,0 459,-205 459,-459 0,-254 -205,-454 -459,-454 -248,0 -454,200 -454,454 0,254 206,459 454,459zm387 3235l0 -2920 -768 0 0 2920 768 0zm3507 0l0 -2062c0,-568 -308,-931 -955,-931 -472,0 -835,230 -1022,448l0 -375 -768 0 0 2920 768 0 0 -1971c133,-169 363,-339 665,-339 326,0 538,139 538,545l0 1765 774 0zm2129 73c453,0 913,-139 1203,-405l-344 -508c-188,181 -527,284 -775,284 -495,0 -786,-296 -840,-653l2171 0 0 -181c0,-950 -587,-1603 -1464,-1603 -882,0 -1511,683 -1511,1530 0,937 671,1536 1560,1536zm677 -1814l-1439 0c30,-290 236,-623 713,-623 508,0 702,345 726,623z"/>
  </g>
  <path class="fil1" d="M738 7986c519,0 709,-289 709,-565 0,-718 -1138,-470 -1138,-902 0,-182 167,-306 395,-306 210,0 412,69 556,231l144 -176c-161,-170 -389,-271 -680,-271 -381,0 -663,219 -663,536 0,686 1138,409 1138,905 0,150 -109,334 -452,334 -271,0 -478,-132 -602,-276l-145 184c159,179 407,306 738,306zm1364 0c123,0 201,-38 256,-90l-63 -164c-29,32 -84,61 -147,61 -93,0 -139,-75 -139,-179l0 -865 283 0 0 -190 -283 0 0 -380 -219 0 0 380 -230 0 0 190 230 0 0 911c0,208 104,326 312,326zm1579 -35l0 -957c0,-337 -242,-470 -539,-470 -228,0 -406,75 -556,231l101 150c124,-136 259,-193 426,-193 202,0 352,106 352,291l0 251c-113,-127 -271,-188 -461,-188 -237,0 -484,144 -484,459 0,302 250,461 484,461 187,0 348,-67 461,-193l0 158 216 0zm-597 -121c-204,0 -345,-127 -345,-305 0,-176 141,-303 345,-303 150,0 297,58 381,170l0 265c-84,115 -231,173 -381,173zm525 -1896l-225 0 -426 415 164 0 487 -415zm862 2052c124,0 202,-38 256,-90l-63 -164c-29,32 -84,61 -147,61 -92,0 -138,-75 -138,-179l0 -865 282 0 0 -190 -282 0 0 -380 -220 0 0 380 -230 0 0 190 230 0 0 911c0,208 104,326 312,326zm1648 -35l0 -977c0,-303 -152,-450 -441,-450 -210,0 -400,119 -498,237l0 -202 -216 0 0 1392 216 0 0 -1017c83,-113 242,-216 412,-216 187,0 314,74 314,322l0 911 213 0zm1006 -2017l-224 0 -427 415 164 0 487 -415zm-354 2017l0 -1392 -216 0 0 1392 216 0zm1787 35c423,0 689,-329 689,-732 0,-404 -266,-730 -689,-730 -424,0 -689,326 -689,730 0,403 265,732 689,732zm0 -193c-297,0 -461,-254 -461,-539 0,-283 164,-536 461,-536 297,0 461,253 461,536 0,285 -164,539 -461,539zm1256 -219l0 -632c75,-121 245,-224 418,-224 280,0 447,230 447,539 0,308 -167,536 -447,536 -173,0 -343,-98 -418,-219zm0 377l0 -207c104,141 274,242 470,242 363,0 620,-277 620,-729 0,-447 -254,-733 -620,-733 -187,0 -357,93 -470,245l0 -740 -216 0 0 1922 216 0zm1658 0l0 -1922 -216 0 0 1922 216 0zm1519 0l0 -957c0,-337 -242,-470 -539,-470 -228,0 -407,75 -557,231l101 150c124,-136 260,-193 427,-193 202,0 351,106 351,291l0 251c-112,-127 -270,-188 -461,-188 -236,0 -484,144 -484,459 0,302 251,461 484,461 188,0 349,-67 461,-193l0 158 217 0zm-597 -121c-205,0 -346,-127 -346,-305 0,-176 141,-303 346,-303 150,0 297,58 380,170l0 265c-83,115 -230,173 -380,173zm1476 156c357,0 544,-188 544,-421 0,-542 -861,-343 -861,-646 0,-124 118,-219 308,-219 182,0 332,75 415,176l101 -150c-110,-112 -277,-202 -516,-202 -331,0 -516,182 -516,401 0,516 862,308 862,646 0,138 -118,239 -331,239 -191,0 -367,-92 -459,-199l-109 156c141,147 331,219 562,219zm1251 0c124,0 201,-38 256,-90l-63 -164c-29,32 -84,61 -147,61 -93,0 -139,-75 -139,-179l0 -865 283 0 0 -190 -283 0 0 -380 -219 0 0 380 -230 0 0 190 230 0 0 911c0,208 104,326 312,326zm1648 -35l0 -977c0,-303 -153,-450 -441,-450 -210,0 -400,119 -498,237l0 -202 -217 0 0 1392 217 0 0 -1017c83,-113 242,-216 412,-216 187,0 314,74 314,322l0 911 213 0zm1006 -2017l-225 0 -426 415 164 0 487 -415zm-354 2017l0 -1392 -217 0 0 1392 217 0zm2265 0l0 -957c0,-337 -242,-470 -539,-470 -228,0 -406,75 -556,231l101 150c124,-136 259,-193 426,-193 202,0 352,106 352,291l0 251c-113,-127 -271,-188 -461,-188 -237,0 -484,144 -484,459 0,302 250,461 484,461 187,0 348,-67 461,-193l0 158 216 0zm-597 -121c-204,0 -345,-127 -345,-305 0,-176 141,-303 345,-303 150,0 297,58 381,170l0 265c-84,115 -231,173 -381,173zm1248 121l0 -986c64,-112 245,-222 381,-222 32,0 58,3 83,6l0 -222c-190,0 -351,110 -464,254l0 -222 -216 0 0 1392 216 0zm1349 35c254,0 404,-104 510,-242l-144 -133c-92,124 -210,182 -354,182 -294,0 -482,-231 -482,-539 0,-309 188,-536 482,-536 144,0 262,51 354,178l144 -129c-106,-139 -256,-243 -510,-243 -415,0 -694,317 -694,730 0,412 279,732 694,732zm1975 -35l0 -983c0,-302 -153,-444 -444,-444 -211,0 -401,119 -496,237l0 -732 -216 0 0 1922 216 0 0 -1017c81,-113 242,-216 409,-216 190,0 314,69 314,317l0 916 217 0zm541 -1591c81,0 145,-63 145,-144 0,-81 -64,-147 -145,-147 -80,0 -147,66 -147,147 0,81 67,144 147,144zm107 1591l0 -1392 -216 0 0 1392 216 0zm1041 0l579 -1392 -234 0 -464 1141 -461 -1141 -236 0 579 1392 237 0zm2158 0l580 -1392 -234 0 -464 1141 -461 -1141 -236 0 579 1392 236 0zm2883 0l0 -213 -1104 0 1083 -1510 0 -199 -1389 0 0 213 1081 0 -1081 1510 0 199 1410 0zm1441 0l0 -957c0,-337 -242,-470 -539,-470 -228,0 -407,75 -556,231l100 150c124,-136 260,-193 427,-193 202,0 352,106 352,291l0 251c-113,-127 -271,-188 -462,-188 -236,0 -484,144 -484,459 0,302 251,461 484,461 188,0 349,-67 462,-193l0 158 216 0zm-597 -121c-205,0 -346,-127 -346,-305 0,-176 141,-303 346,-303 150,0 297,58 381,170l0 265c-84,115 -231,173 -381,173zm525 -1896l-225 0 -427 415 165 0 487 -415zm2404 2017l0 -1006c0,-279 -136,-421 -390,-421 -201,0 -389,133 -467,260 -40,-144 -161,-260 -371,-260 -208,0 -392,147 -453,237l0 -202 -216 0 0 1392 216 0 0 -1017c75,-113 225,-216 366,-216 185,0 257,112 257,288l0 945 216 0 0 -1020c72,-113 225,-213 369,-213 181,0 256,112 256,288l0 945 217 0zm648 0l0 -986c63,-112 245,-222 380,-222 32,0 58,3 84,6l0 -222c-190,0 -352,110 -464,254l0 -222 -216 0 0 1392 216 0zm1179 35c357,0 545,-188 545,-421 0,-542 -862,-343 -862,-646 0,-124 118,-219 308,-219 182,0 332,75 415,176l101 -150c-109,-112 -277,-202 -516,-202 -331,0 -516,182 -516,401 0,516 862,308 862,646 0,138 -118,239 -331,239 -191,0 -366,-92 -459,-199l-109 156c141,147 331,219 562,219zm2121 -35l-620 -761 617 -631 -274 0 -732 741 0 -1271 -216 0 0 1922 216 0 0 -398 234 -227 498 625 277 0zm1412 0l0 -1392 -216 0 0 1023c-80,113 -242,211 -409,211 -190,0 -314,-72 -314,-317l0 -917 -216 0 0 983c0,300 152,444 443,444 208,0 390,-110 496,-231l0 196 216 0z"/>
 </g>
</svg>
